<?xml version="1.0" encoding="UTF-8"?>
<svg version="1.1" xmlns="http://www.w3.org/2000/svg" width="391" height="376">
<path d="M0 0 C1.87109375 0.14453125 1.87109375 0.14453125 4 1 C5.59765625 3.07421875 5.59765625 3.07421875 7.0625 5.6875 C7.57167969 6.58984375 8.08085937 7.4921875 8.60546875 8.421875 C9.29576172 9.69804687 9.29576172 9.69804687 10 11 C10.61875 12.134375 11.2375 13.26875 11.875 14.4375 C13 17 13 17 13 20 C13.66 20 14.32 20 15 20 C15.33 21.65 15.66 23.3 16 25 C16.66 25 17.32 25 18 25 C18.47308594 25.969375 18.94617188 26.93875 19.43359375 27.9375 C23.43570248 36.06959669 27.60251236 44.04606506 32.20483398 51.85742188 C35 56.68257952 35 56.68257952 35 60 C35.66 60 36.32 60 37 60 C37.4846875 60.98097656 37.969375 61.96195313 38.46875 62.97265625 C46.80566199 79.84640387 46.80566199 79.84640387 56.125 96.1875 C58.78917378 100.5444598 61.06012509 105.03227915 63.3125 109.61328125 C65.25968502 113.5211734 67.27290703 117.38971638 69.3125 121.25 C69.68858398 121.96244873 70.06466797 122.67489746 70.45214844 123.40893555 C72.44112242 127.15064039 74.47466854 130.86039317 76.578125 134.5390625 C76.99408936 135.26706055 77.41005371 135.99505859 77.83862305 136.74511719 C78.63862522 138.1373412 79.44454476 139.52618605 80.25708008 140.91113281 C83 145.67363268 83 145.67363268 83 149 C83.66 149 84.32 149 85 149 C85.43828125 149.89976562 85.8765625 150.79953125 86.328125 151.7265625 C93.9404545 167.21788892 102.30852888 182.29715887 110.84301758 197.29589844 C113.79447567 202.53007759 116.47216553 207.88010386 119.11767578 213.27392578 C121.63424984 218.3687608 124.4304312 223.24909726 127.34375 228.12890625 C129.60741416 232.05294672 131.59141103 236.09450325 133.578125 240.1640625 C135.29013071 243.5786673 137.17134546 246.87425318 139.1171875 250.16015625 C140 252 140 252 140 255 C140.66 255 141.32 255 142 255 C142.33 256.65 142.66 258.3 143 260 C143.66 260 144.32 260 145 260 C145.69222656 261.40185547 145.69222656 261.40185547 146.3984375 262.83203125 C150.30230363 270.70574149 154.28771047 278.53228228 158.375 286.3125 C159.01767822 287.53900269 159.01767822 287.53900269 159.67333984 288.7902832 C160.07762207 289.55687256 160.4819043 290.32346191 160.8984375 291.11328125 C161.25599121 291.79173096 161.61354492 292.47018066 161.98193359 293.16918945 C162.90467992 294.82858387 163.94679236 296.42018854 165 298 C165 298.99 165 299.98 165 301 C165.66 301 166.32 301 167 301 C168.34070318 303.60060504 169.67273354 306.20504916 171 308.8125 C171.57234375 309.91948242 171.57234375 309.91948242 172.15625 311.04882812 C172.5171875 311.76103516 172.878125 312.47324219 173.25 313.20703125 C173.58515625 313.8616333 173.9203125 314.51623535 174.265625 315.19067383 C175 317 175 317 175 320 C175.66 320 176.32 320 177 320 C177.33 322.31 177.66 324.62 178 327 C118.93 327 59.86 327 -1 327 C-1 306.87 -1 286.74 -1 266 C8.37245287 259.75169809 17.7510675 253.52445632 27.1875 247.375 C35.48997838 241.96316202 43.76227921 236.50993368 52 231 C53.27325142 230.15076262 54.54665808 229.30175786 55.8203125 228.453125 C56.91085937 227.72609375 58.00140625 226.9990625 59.125 226.25 C67.75 220.5 76.375 214.75 85 209 C84.525625 208.071875 84.05125 207.14375 83.5625 206.1875 C82 203 82 203 81 200 C75.75239028 202.85460251 70.62393987 205.80246372 65.62890625 209.08203125 C64 210 64 210 62 210 C62 210.66 62 211.32 62 212 C56.70588235 216 56.70588235 216 53 216 C53 216.66 53 217.32 53 218 C51.35 218.33 49.7 218.66 48 219 C47.67 219.99 47.34 220.98 47 222 C44.33916031 223.99396257 41.38757675 226 38 226 C38 226.66 38 227.32 38 228 C31.25 232 31.25 232 29 232 C29 232.66 29 233.32 29 234 C27.96875 234.5775 26.9375 235.155 25.875 235.75 C23.39214266 237.15728756 21.10662318 238.61849164 18.75 240.25 C16 242 16 242 13 242 C12.67 242.99 12.34 243.98 12 245 C11.01 245 10.02 245 9 245 C9 245.66 9 246.32 9 247 C5.50371657 249.59723912 3.28315451 250.15836874 -1 250 C-1.18707846 234.73588447 -1.3280509 219.47182189 -1.41449738 204.20681667 C-1.45570771 197.1185258 -1.5118656 190.0309482 -1.60351562 182.94311523 C-1.69192601 176.10254733 -1.7382781 169.26272079 -1.75901794 162.42161751 C-1.77379721 159.81203614 -1.80265841 157.20249522 -1.84584045 154.59322929 C-1.90394409 150.93683237 -1.91191156 147.28349347 -1.90820312 143.62670898 C-1.93696533 142.54848877 -1.96572754 141.47026855 -1.99536133 140.359375 C-1.91650368 133.17087192 -1.91650368 133.17087192 0.69772339 129.83108711 C2.71875992 128.03019983 4.74827879 126.49885683 7 125 C8.08289181 124.22128619 8.08289181 124.22128619 9.18766022 123.42684078 C11.16058037 122.01123775 13.16567103 120.65716138 15.1875 119.3125 C16.55722501 118.39376629 17.92574337 117.47323071 19.29296875 116.55078125 C19.93024902 116.12104004 20.5675293 115.69129883 21.22412109 115.24853516 C22.82212158 114.12505777 24.3486679 112.90156243 25.86328125 111.66796875 C28 110 28 110 30 110 C28.51887086 107.17640062 27.01271839 104.48053942 25 102 C22.28341743 101.32845316 22.28341743 101.32845316 20 102 C20 102.66 20 103.32 20 104 C18.02 104.495 18.02 104.495 16 105 C16 105.66 16 106.32 16 107 C14.515 107.495 14.515 107.495 13 108 C12.505 108.99 12.505 108.99 12 110 C9.4375 110.625 9.4375 110.625 7 111 C7 111.66 7 112.32 7 113 C4.29120665 114.35439668 1.99066732 114.06501451 -1 114 C-1.02332994 99.28390435 -1.04097964 84.56781115 -1.05181217 69.85170078 C-1.05697493 63.01921026 -1.06401723 56.18673121 -1.07543945 49.35424805 C-1.08644707 42.76664695 -1.09227623 36.17905469 -1.09487724 29.59144402 C-1.096732 27.07191721 -1.10035357 24.55239109 -1.10573006 22.03286934 C-1.11293676 18.51742235 -1.1139911 15.00202539 -1.11352539 11.48657227 C-1.11712067 10.43353409 -1.12071594 9.38049591 -1.12442017 8.29554749 C-1.12235817 6.86728638 -1.12235817 6.86728638 -1.12025452 5.41017151 C-1.12117631 4.57779244 -1.1220981 3.74541338 -1.12304783 2.88781071 C-1 1 -1 1 0 0 Z " fill="#FB5C5A" transform="translate(202,9)"/>
<path d="M0 0 C0 59.4 0 118.8 0 180 C-4.98887899 180 -6.79759598 179.34552782 -11 177 C-11 176.34 -11 175.68 -11 175 C-11.66 174.938125 -12.32 174.87625 -13 174.8125 C-16.44121567 173.88050409 -18.77282258 172.34987448 -21.73046875 170.41015625 C-25.66031689 167.96837453 -29.83515933 166.00560975 -34 164 C-34 163.34 -34 162.68 -34 162 C-34.70125 161.896875 -35.4025 161.79375 -36.125 161.6875 C-39.39137647 160.90640997 -42.0471852 159.57941257 -45 158 C-45 157.34 -45 156.68 -45 156 C-46.65 155.67 -48.3 155.34 -50 155 C-50 154.34 -50 153.68 -50 153 C-53.78834395 154.26278132 -54.22011278 155.52112952 -56 159 C-56.69579454 161.19130534 -56.69579454 161.19130534 -57 163 C-56.46375 163.103125 -55.9275 163.20625 -55.375 163.3125 C-52.37497956 164.18092697 -49.7620465 165.55620296 -47 167 C-47 167.66 -47 168.32 -47 169 C-46.319375 169.061875 -45.63875 169.12375 -44.9375 169.1875 C-41.70695444 170.08105516 -39.64630975 171.62060812 -36.99609375 173.62109375 C-34.86196189 175.09535705 -32.71430462 176.19403182 -30.375 177.3125 C-26.2422898 179.30348652 -22.38656511 181.56289505 -18.5 184 C-13.14540061 187.35377044 -7.71715519 190.31564722 -2 193 C-2 193.66 -2 194.32 -2 195 C-1.34 195 -0.68 195 0 195 C0.02314185 207.98656493 0.04092453 220.97312498 0.05181217 233.95970631 C0.05703695 239.98950235 0.06412729 246.01928432 0.07543945 252.04907227 C0.08628266 257.86510545 0.0922799 263.68112507 0.09487724 269.49716759 C0.09672889 271.71918641 0.10034456 273.94120447 0.10573006 276.16321754 C0.11295945 279.26874029 0.11399013 282.37420656 0.11352539 285.47973633 C0.11712067 286.40402435 0.12071594 287.32831238 0.12442017 288.28060913 C0.1230455 289.12614853 0.12167084 289.97168793 0.12025452 290.84284973 C0.12163721 291.94485324 0.12163721 291.94485324 0.12304783 293.06911945 C0 295 0 295 -1 298 C-5.20764167 297.33688199 -8.78731893 295.94459155 -12.6875 294.25 C-13.60462769 293.85228394 -13.60462769 293.85228394 -14.5402832 293.4465332 C-19.11169013 291.44343994 -23.58325126 289.28029472 -28.01171875 286.98046875 C-30.12217713 285.88374175 -30.12217713 285.88374175 -33 285 C-33 284.34 -33 283.68 -33 283 C-34.98 282.67 -36.96 282.34 -39 282 C-39 281.34 -39 280.68 -39 280 C-40.24716797 279.86851562 -40.24716797 279.86851562 -41.51953125 279.734375 C-45.6868778 278.85506956 -48.94536647 277.22561578 -52.6875 275.25 C-54.09683876 274.52445153 -55.50700037 273.80049924 -56.91796875 273.078125 C-57.60681152 272.72427734 -58.2956543 272.37042969 -59.00537109 272.00585938 C-63.26801737 269.85627521 -67.63234026 267.92473141 -72 266 C-72 265.34 -72 264.68 -72 264 C-72.825 263.91621094 -73.65 263.83242188 -74.5 263.74609375 C-78.78013091 262.83369977 -82.15826995 261.10251643 -86 259.0625 C-90.5992886 256.64614443 -94.99551014 254.49352744 -100 253 C-100 252.34 -100 251.68 -100 251 C-101.32 251 -102.64 251 -104 251 C-104.33 251.99 -104.66 252.98 -105 254 C-105.66 254 -106.32 254 -107 254 C-107.33 256.31 -107.66 258.62 -108 261 C-106.80697266 261.35771484 -106.80697266 261.35771484 -105.58984375 261.72265625 C-101.08578971 263.32529572 -96.86203138 265.35664783 -92.5625 267.4375 C-87.0847041 270.07527603 -81.60905544 272.65219887 -76 275 C-76 275.66 -76 276.32 -76 277 C-75.16082031 277.09152344 -74.32164063 277.18304688 -73.45703125 277.27734375 C-69.48697072 278.10724341 -66.23814894 279.68441224 -62.6875 281.5625 C-61.28611881 282.28442364 -59.88373712 283.00440778 -58.48046875 283.72265625 C-57.7539209 284.09535645 -57.02737305 284.46805664 -56.27880859 284.85205078 C-52.38889534 286.81159354 -48.44581184 288.65628362 -44.5 290.5 C-43.75194092 290.85006104 -43.00388184 291.20012207 -42.2331543 291.56079102 C-40.48954174 292.37551535 -38.74489242 293.18802036 -37 294 C-37 294.66 -37 295.32 -37 296 C-36.12085938 296.11214844 -35.24171875 296.22429687 -34.3359375 296.33984375 C-30.98812874 297.00234923 -28.63271232 297.98108106 -25.625 299.5625 C-24.59761719 300.09488281 -23.57023438 300.62726563 -22.51171875 301.17578125 C-20.77341797 302.07876953 -20.77341797 302.07876953 -19 303 C-17.59134343 303.70482816 -16.18111319 304.40651776 -14.76953125 305.10546875 C-14.0513623 305.46116943 -13.33319336 305.81687012 -12.59326172 306.18334961 C-11.17722236 306.88399241 -9.76089008 307.5840436 -8.34423828 308.28344727 C-5.43806777 309.73005998 -2.70526252 311.19649165 0 313 C0 317.62 0 322.24 0 327 C-59.07 327 -118.14 327 -179 327 C-178.10299241 321.61795444 -176.81401087 318.39221731 -174.125 313.875 C-173.30879036 312.46418064 -172.49374193 311.05268902 -171.6796875 309.640625 C-171.24624023 308.89361328 -170.81279297 308.14660156 -170.36621094 307.37695312 C-167.94021515 303.15617131 -165.59633933 298.89041563 -163.25 294.625 C-162.57928467 293.41432861 -162.57928467 293.41432861 -161.89501953 292.17919922 C-159.69196924 288.18070786 -157.56174566 284.16131134 -155.53515625 280.0703125 C-152.8856639 274.72247486 -150.05546983 269.48325806 -147.1875 264.25 C-146.39811035 262.80439697 -146.39811035 262.80439697 -145.59277344 261.32958984 C-142.70560769 256.05764284 -139.76742291 250.82333254 -136.75 245.625 C-133.60249605 240.17539606 -130.7751138 234.6190879 -128.00561523 228.97265625 C-125.45708883 223.81425351 -122.67459976 218.82949234 -119.78466797 213.85620117 C-117.52257798 209.95184054 -115.45092555 206.00062485 -113.46875 201.94921875 C-108.72730936 192.42850683 -103.82406561 182.94843339 -98.375 173.8125 C-95.34989105 168.73059969 -92.72495995 163.51189155 -90.12280273 158.20678711 C-87.37389018 152.64497244 -84.37275922 147.25706248 -81.29223633 141.87353516 C-78.81716892 137.52328684 -76.51120868 133.12076608 -74.3125 128.625 C-72.35421359 124.63639825 -70.33375761 120.78081048 -68 117 C-65.34482992 112.69582955 -63.10107595 108.25572709 -60.87573242 103.71679688 C-57.71366401 97.32316404 -54.22230071 91.12445854 -50.73828125 84.90234375 C-43.46770172 71.91558444 -36.39745597 58.82261977 -29.51220703 45.62792969 C-26.46717639 39.81860718 -23.23176352 34.14854042 -19.9375 28.4765625 C-17.7806059 24.60632914 -15.82040354 20.66665042 -13.875 16.6875 C-5.64986262 0 -5.64986262 0 0 0 Z " fill="#FA544C" transform="translate(189,9)"/>
<path d="M0 0 C1.32 0.33 2.64 0.66 4 1 C3.01 1 2.02 1 1 1 C1 1.99 1 2.98 1 4 C0.01 4.66 -0.98 5.32 -2 6 C-2.33 6.99 -2.66 7.98 -3 9 C-2.34 9 -1.68 9 -1 9 C-1 8.34 -1 7.68 -1 7 C-0.34 7 0.32 7 1 7 C1.22900177 14.80988929 1.38613857 22.61890737 1.49438477 30.43139648 C1.53444064 33.0876271 1.60080914 35.73944867 1.67895508 38.39526367 C1.78867444 42.22109877 1.83929082 46.04396749 1.87890625 49.87109375 C1.92535782 51.04957382 1.97180939 52.22805389 2.01966858 53.44224548 C2.02261442 58.29788405 1.99598857 61.65728366 -0.95803833 65.63967896 C-3.36743164 68.00805664 -3.36743164 68.00805664 -5.7691803 70.00453186 C-8.15663579 72.14011071 -9.46076992 74.21132242 -11 77 C-11.97130863 78.1589333 -12.98142348 79.28668427 -14.03125 80.375 C-14.59457031 80.96796875 -15.15789062 81.5609375 -15.73828125 82.171875 C-16.91276042 83.390625 -18.08723958 84.609375 -19.26171875 85.828125 C-21.61512622 88.30539603 -23.73658982 90.56098303 -25.5 93.5 C-28.09048106 97.81746844 -31.78174755 101.21697972 -35.26171875 104.828125 C-38.33231025 108.06032658 -40.77805061 111.10636455 -43 115 C-43.804375 115.639375 -44.60875 116.27875 -45.4375 116.9375 C-48.37960657 119.305537 -49.95960271 121.84067516 -52 125 C-53.33333333 126.33333333 -54.66666667 127.66666667 -56 129 C-56.474375 129.825 -56.94875 130.65 -57.4375 131.5 C-59 134 -59 134 -61.4375 135.9375 C-64.37960657 138.305537 -65.95960271 140.84067516 -68 144 C-69.33333333 145.33333333 -70.66666667 146.66666667 -72 148 C-72.33 148.99 -72.66 149.98 -73 151 C-74.77734375 152.5 -74.77734375 152.5 -76.9375 154 C-79.7269604 155.94401596 -81.06784883 157.10177325 -83 160 C-83.99 160 -84.98 160 -86 160 C-84.47949972 154.69084986 -82.04266125 150.25287937 -79.3125 145.5 C-76.14050105 139.89697374 -73.08390175 134.28192035 -70.25 128.5 C-67.89173604 123.69531268 -65.3234408 119.14536719 -62.515625 114.59375 C-60.44923309 111.05745044 -58.67806575 107.39293278 -56.87573242 103.71679688 C-53.71366401 97.32316404 -50.22230071 91.12445854 -46.73828125 84.90234375 C-39.46770172 71.91558444 -32.39745597 58.82261977 -25.51220703 45.62792969 C-22.46717639 39.81860718 -19.23176352 34.14854042 -15.9375 28.4765625 C-13.78066875 24.6064419 -11.81887798 20.66731491 -9.875 16.6875 C-7.00089781 10.80507715 -3.88217677 5.29387742 0 0 Z " fill="#EA3E0A" transform="translate(185,9)"/>
<path d="M0 0 C1.9140625 0.19921875 1.9140625 0.19921875 4 1 C5.3359375 2.70703125 5.3359375 2.70703125 6.375 4.8125 C6.91253906 5.84310547 6.91253906 5.84310547 7.4609375 6.89453125 C8 9 8 9 7.1015625 11.26171875 C6.73804688 11.83535156 6.37453125 12.40898437 6 13 C5.34 12.34 4.68 11.68 4 11 C3.67 29.48 3.34 47.96 3 67 C2.67 67 2.34 67 2 67 C1.67 57.43 1.34 47.86 1 38 C0.67 63.08 0.34 88.16 0 114 C-0.33 114 -0.66 114 -1 114 C-1.02332994 99.28390435 -1.04097964 84.56781115 -1.05181217 69.85170078 C-1.05697493 63.01921026 -1.06401723 56.18673121 -1.07543945 49.35424805 C-1.08644707 42.76664695 -1.09227623 36.17905469 -1.09487724 29.59144402 C-1.096732 27.07191721 -1.10035357 24.55239109 -1.10573006 22.03286934 C-1.11293676 18.51742235 -1.1139911 15.00202539 -1.11352539 11.48657227 C-1.11712067 10.43353409 -1.12071594 9.38049591 -1.12442017 8.29554749 C-1.12235817 6.86728638 -1.12235817 6.86728638 -1.12025452 5.41017151 C-1.12117631 4.57779244 -1.1220981 3.74541338 -1.12304783 2.88781071 C-1 1 -1 1 0 0 Z " fill="#732218" transform="translate(202,9)"/>
<path d="M0 0 C0.99 0 1.98 0 3 0 C3 0.66 3 1.32 3 2 C2.34 2 1.68 2 1 2 C0.773125 3.2375 0.54625 4.475 0.3125 5.75 C-1.01145277 11.80925829 -3.49478042 17.34891308 -6 23 C-6.66 23 -7.32 23 -8 23 C-8.33 24.32 -8.66 25.64 -9 27 C-9.66 27 -10.32 27 -11 27 C-11.33 28.98 -11.66 30.96 -12 33 C-12.66 33 -13.32 33 -14 33 C-14 33.99 -14 34.98 -14 36 C-15.98 36.495 -15.98 36.495 -18 37 C-17.37230258 32.23688426 -15.4219724 28.46277508 -13.25 24.25 C-12.88874023 23.5391626 -12.52748047 22.8283252 -12.15527344 22.09594727 C-9.55103983 16.99860798 -6.85654552 11.9608335 -4 7 C-3.41025391 5.96359375 -3.41025391 5.96359375 -2.80859375 4.90625 C-1.87610793 3.26871392 -0.93867774 1.63399459 0 0 Z " fill="#E83C15" transform="translate(147,78)"/>
<path d="M0 0 C0.33 0 0.66 0 1 0 C1 42.24 1 84.48 1 128 C0.67 128 0.34 128 0 128 C0 87.74 0 47.48 0 6 C-0.66 6 -1.32 6 -2 6 C-2 6.66 -2 7.32 -2 8 C-2.66 8 -3.32 8 -4 8 C-3.6875 6.0625 -3.6875 6.0625 -3 4 C-2.01 3.67 -1.02 3.34 0 3 C0 2.01 0 1.02 0 0 Z " fill="#FC4433" transform="translate(186,10)"/>
<path d="M0 0 C0.33 0 0.66 0 1 0 C1.41386916 5.38029909 0.23709068 10.12560517 -2 15 C-2.99 15.495 -2.99 15.495 -4 16 C-4.68472665 17.88764903 -4.68472665 17.88764903 -5.125 20.0625 C-5.29257813 20.79597656 -5.46015625 21.52945313 -5.6328125 22.28515625 C-5.75398437 22.85105469 -5.87515625 23.41695312 -6 24 C-6.66 24 -7.32 24 -8 24 C-8.33 25.32 -8.66 26.64 -9 28 C-9.66 28 -10.32 28 -11 28 C-11.33 29.98 -11.66 31.96 -12 34 C-13.32 33.67 -14.64 33.34 -16 33 C-16 33.66 -16 34.32 -16 35 C-16.66 34.67 -17.32 34.34 -18 34 C-17.56131592 33.18321777 -17.12263184 32.36643555 -16.6706543 31.52490234 C-15.03178826 28.47253331 -13.39369211 25.41975366 -11.75610352 22.36669922 C-11.04937693 21.04947842 -10.34235058 19.73241841 -9.63500977 18.41552734 C-8.61394217 16.51442757 -7.59398097 14.61273773 -6.57421875 12.7109375 C-5.96151123 11.56931152 -5.34880371 10.42768555 -4.7175293 9.25146484 C-3.09962739 6.1886052 -1.53588362 3.10466434 0 0 Z " fill="#E13813" transform="translate(166,42)"/>
<path d="M0 0 C0.33 0 0.66 0 1 0 C1.89169308 9.02634104 2.26662797 18.02834151 2.50268555 27.08984375 C2.56223075 29.3647136 2.62739429 31.6393707 2.69335938 33.9140625 C2.79713788 37.57732972 2.8802575 41.24065649 2.95294189 44.90466309 C2.9991787 46.96343017 3.06505105 49.02092985 3.13232422 51.07910156 C3.15955566 52.32401367 3.18678711 53.56892578 3.21484375 54.8515625 C3.24570068 55.94549316 3.27655762 57.03942383 3.30834961 58.16650391 C3 61 3 61 0 65 C0 43.55 0 22.1 0 0 Z " fill="#FE443D" transform="translate(202,35)"/>
<path d="M0 0 C0.33 0.66 0.66 1.32 1 2 C1.99 1.67 2.98 1.34 4 1 C3.44510654 4.32936078 2.88568938 7.17146592 1 10 C0.20207031 10.39703125 -0.59585938 10.7940625 -1.41796875 11.203125 C-4.83563844 13.58153356 -5.31401262 15.7011825 -6.5625 19.625 C-7.69140625 23.1640625 -7.69140625 23.1640625 -9 26 C-11.15234375 26.8984375 -11.15234375 26.8984375 -13 27 C-11.43580884 21.44935595 -8.78520379 16.77886318 -5.9375 11.8125 C-5.02766551 10.21614243 -4.12001645 8.61853677 -3.21484375 7.01953125 C-2.81386475 6.31932861 -2.41288574 5.61912598 -1.99975586 4.89770508 C-0.86739328 2.87285063 -0.86739328 2.87285063 0 0 Z " fill="#BF3116" transform="translate(112,142)"/>
<path d="M0 0 C3.43198603 1.23932829 6.30325632 2.50301511 9 5 C9 5.99 9 6.98 9 8 C7.35 7.67 5.7 7.34 4 7 C4 6.34 4 5.68 4 5 C0.21165605 6.26278132 -0.22011278 7.52112952 -2 11 C-2.69579454 13.19130534 -2.69579454 13.19130534 -3 15 C-1.68 15.33 -0.36 15.66 1 16 C0.34 16.66 -0.32 17.32 -1 18 C-1 17.34 -1 16.68 -1 16 C-1.99 16 -2.98 16 -4 16 C-5.6875 14.5 -5.6875 14.5 -7 13 C-5.35821735 8.22390502 -2.73453298 4.20617096 0 0 Z " fill="#E34138" transform="translate(135,157)"/>
<path d="M0 0 C0.99 0.66 1.98 1.32 3 2 C1.45863506 6.05943639 -0.37774716 9.89504037 -2.375 13.75 C-2.96023437 14.89984375 -3.54546875 16.0496875 -4.1484375 17.234375 C-6 20 -6 20 -8.2265625 20.890625 C-9.10441406 20.94476563 -9.10441406 20.94476563 -10 21 C-9.36355878 18.00843299 -8.38047987 15.58061047 -6.93359375 12.890625 C-6.53076172 12.13652344 -6.12792969 11.38242188 -5.71289062 10.60546875 C-5.29201172 9.82816406 -4.87113281 9.05085937 -4.4375 8.25 C-4.01275391 7.45722656 -3.58800781 6.66445312 -3.15039062 5.84765625 C-2.10417583 3.89628933 -1.05394047 1.94720186 0 0 Z " fill="#EB3D33" transform="translate(71,219)"/>
<path d="M0 0 C2 1 2 1 3 3 C2.34 3 1.68 3 1 3 C1 3.66 1 4.32 1 5 C0.01 5.33 -0.98 5.66 -2 6 C-2.33 6.66 -2.66 7.32 -3 8 C-5.5625 8.625 -5.5625 8.625 -8 9 C-8 9.66 -8 10.32 -8 11 C-10.31 11.33 -12.62 11.66 -15 12 C-15 10.68 -15 9.36 -15 8 C-13.35 8 -11.7 8 -10 8 C-10 7.34 -10 6.68 -10 6 C-7.8828125 4.45703125 -7.8828125 4.45703125 -5.125 2.8125 C-4.22007812 2.26207031 -3.31515625 1.71164063 -2.3828125 1.14453125 C-1.20332031 0.57798828 -1.20332031 0.57798828 0 0 Z " fill="#F5464B" transform="translate(217,111)"/>
<path d="M0 0 C0.99 0 1.98 0 3 0 C2.83923477 0.54460876 2.67846954 1.08921753 2.51283264 1.65032959 C1.92406239 4.34792705 1.8382162 6.83314383 1.79467773 9.59472656 C1.77473251 10.71558655 1.75478729 11.83644653 1.73423767 12.99127197 C1.70916893 14.79770172 1.70916893 14.79770172 1.68359375 16.640625 C1.66281265 17.87794373 1.64203156 19.11526245 1.62062073 20.39007568 C1.56634128 23.67138691 1.51608221 26.95272733 1.46777344 30.23413086 C1.41743908 33.58583104 1.3617364 36.9374372 1.30664062 40.2890625 C1.19955491 46.85930464 1.09776964 53.42961298 1 60 C0.67 60 0.34 60 0 60 C0 40.2 0 20.4 0 0 Z " fill="#FD4128" transform="translate(204,16)"/>
<path d="M0 0 C1.76025107 2.6403766 3.46070032 5.29852805 5.125 8 C5.66382813 8.86625 6.20265625 9.7325 6.7578125 10.625 C8 13 8 13 8 16 C8.66 16.33 9.32 16.66 10 17 C8.02 17.99 8.02 17.99 6 19 C4.7947778 16.77890472 3.61112596 14.5502135 2.4375 12.3125 C2.09525391 11.68666016 1.75300781 11.06082031 1.40039062 10.41601562 C-0.16044313 7.4047101 -1.04450625 5.46152368 -0.71484375 2.04296875 C-0.47894531 1.36878906 -0.24304688 0.69460937 0 0 Z " fill="#F84A4E" transform="translate(229,53)"/>
<path d="M0 0 C0.33 0 0.66 0 1 0 C1 15.84 1 31.68 1 48 C0.67 48 0.34 48 0 48 C0 34.14 0 20.28 0 6 C-0.66 6 -1.32 6 -2 6 C-2 6.66 -2 7.32 -2 8 C-2.66 8 -3.32 8 -4 8 C-3.6875 6.0625 -3.6875 6.0625 -3 4 C-2.01 3.67 -1.02 3.34 0 3 C0 2.01 0 1.02 0 0 Z " fill="#FA401D" transform="translate(186,10)"/>
<path d="M0 0 C3.05402088 1.52701044 3.65869481 3.95157912 5 7 C5 7.99 5 8.98 5 10 C5.66 10 6.32 10 7 10 C7.33 11.65 7.66 13.3 8 15 C8.66 15 9.32 15 10 15 C10.66 16.98 11.32 18.96 12 21 C10.68 21 9.36 21 8 21 C2.6046209 15.04959387 0.85753042 7.77691378 0 0 Z " fill="#E2403C" transform="translate(210,19)"/>
<path d="M0 0 C0.66 0 1.32 0 2 0 C2.33 0.99 2.66 1.98 3 3 C3.66 2.67 4.32 2.34 5 2 C8.01918736 6.3476298 8.01918736 6.3476298 7.9375 9.125 C6.67116073 11.65767854 5.50485151 12.67799504 3 14 C0.25 13.6875 0.25 13.6875 -2 13 C-0.71034824 11.62437146 0.62689293 10.29233607 2 9 C2.66 9 3.32 9 4 9 C3.34 8.071875 2.68 7.14375 2 6.1875 C0 3 0 3 0 0 Z " fill="#BC3124" transform="translate(228,110)"/>
<path d="M0 0 C0.99 0 1.98 0 3 0 C2.51243962 4.29053133 1.75337652 6.69594818 -1 10 C-1.309375 10.721875 -1.61875 11.44375 -1.9375 12.1875 C-3 14 -3 14 -5.125 14.75 C-6.053125 14.87375 -6.053125 14.87375 -7 15 C-5.63408831 11.45756548 -4.09068516 8.07372071 -2.375 4.6875 C-1.70597656 3.36298828 -1.70597656 3.36298828 -1.0234375 2.01171875 C-0.68570313 1.34785156 -0.34796875 0.68398437 0 0 Z " fill="#D23316" transform="translate(93,178)"/>
<path d="M0 0 C2.125 0.375 2.125 0.375 4 1 C3.01 1 2.02 1 1 1 C1 1.99 1 2.98 1 4 C0.01 4.66 -0.98 5.32 -2 6 C-2.33 6.99 -2.66 7.98 -3 9 C-2.34 9.33 -1.68 9.66 -1 10 C-1.33 10.99 -1.66 11.98 -2 13 C-3.33333333 13.33333333 -4.66666667 13.66666667 -6 14 C-6.33 14.99 -6.66 15.98 -7 17 C-7.66 16.34 -8.32 15.68 -9 15 C-7.87936585 12.87259292 -6.75373767 10.74810181 -5.625 8.625 C-5.14933594 7.72007813 -5.14933594 7.72007813 -4.6640625 6.796875 C-3.2867938 4.21449618 -2.08169419 2.08169419 0 0 Z " fill="#D13612" transform="translate(185,9)"/>
<path d="M0 0 C2.58270042 0.36506525 3.69795447 0.61405293 5.3359375 2.70703125 C5.85027344 3.74923828 5.85027344 3.74923828 6.375 4.8125 C6.91253906 5.84310547 6.91253906 5.84310547 7.4609375 6.89453125 C8 9 8 9 7.1015625 11.26171875 C6.73804688 11.83535156 6.37453125 12.40898437 6 13 C5.67 11.02 5.34 9.04 5 7 C3.35 6.67 1.7 6.34 0 6 C0 4.02 0 2.04 0 0 Z " fill="#F0473C" transform="translate(202,9)"/>
<path d="M0 0 C0.33 0.66 0.66 1.32 1 2 C1.99 1.67 2.98 1.34 4 1 C3.44744856 4.31530866 2.9252298 7.2084168 1 10 C-1.625 11.25 -1.625 11.25 -4 12 C-3.45660208 7.43545749 -2.20536179 4.0271824 0 0 Z " fill="#DA2F10" transform="translate(112,142)"/>
<path d="M0 0 C2.5 0.5 2.5 0.5 4.375 2.8125 C5.5 5.5 5.5 5.5 4.5 8.5 C4.17 7.18 3.84 5.86 3.5 4.5 C2.55125 4.665 1.6025 4.83 0.625 5 C-2.5 5.5 -2.5 5.5 -4.5 5.5 C-4.5 6.16 -4.5 6.82 -4.5 7.5 C-5.16 7.5 -5.82 7.5 -6.5 7.5 C-5.75567029 3.1828877 -4.44871678 0.88974336 0 0 Z " fill="#F24328" transform="translate(226.5,105.5)"/>
<path d="M0 0 C0.66 0.33 1.32 0.66 2 1 C2 1.99 2 2.98 2 4 C1.34 4 0.68 4 0 4 C-0.144375 4.78375 -0.28875 5.5675 -0.4375 6.375 C-1 9 -1 9 -2 11 C-2.66 11 -3.32 11 -4 11 C-4.66 12.65 -5.32 14.3 -6 16 C-6.66 16 -7.32 16 -8 16 C-6.57250019 12.20950293 -4.83763458 8.72877544 -2.875 5.1875 C-2.33617188 4.21167969 -1.79734375 3.23585938 -1.2421875 2.23046875 C-0.83226563 1.49441406 -0.42234375 0.75835937 0 0 Z " fill="#C32C18" transform="translate(126,117)"/>
<path d="M0 0 C0.33 0.66 0.66 1.32 1 2 C-0.75 4.5 -0.75 4.5 -3 7 C-4.32 7 -5.64 7 -7 7 C-7.33 7.99 -7.66 8.98 -8 10 C-8.99 9.34 -9.98 8.68 -11 8 C-7.37 5.36 -3.74 2.72 0 0 Z " fill="#BD2A1D" transform="translate(214,131)"/>
<path d="M0 0 C0.33 0.99 0.66 1.98 1 3 C0.34 3 -0.32 3 -1 3 C-1.0825 4.11375 -1.165 5.2275 -1.25 6.375 C-1.4975 7.57125 -1.745 8.7675 -2 10 C-4.046875 11.2265625 -4.046875 11.2265625 -6 12 C-4.66958425 3.64989059 -4.66958425 3.64989059 -1.875 0.9375 C-0.946875 0.4734375 -0.946875 0.4734375 0 0 Z " fill="#F93E10" transform="translate(111,152)"/>
<path d="M0 0 C0.99 0 1.98 0 3 0 C2.84152588 0.54817383 2.68305176 1.09634766 2.51977539 1.66113281 C1.9372438 4.28238816 1.78793845 6.73872553 1.68359375 9.421875 C1.64169922 10.44667969 1.59980469 11.47148437 1.55664062 12.52734375 C1.51732422 13.59082031 1.47800781 14.65429688 1.4375 15.75 C1.39431641 16.82894531 1.35113281 17.90789063 1.30664062 19.01953125 C1.20071011 21.67956428 1.09863579 24.33968812 1 27 C0.67 27 0.34 27 0 27 C0 18.09 0 9.18 0 0 Z " fill="#FA3F1B" transform="translate(204,16)"/>
<path d="M0 0 C0.66 0 1.32 0 2 0 C2.33 1.32 2.66 2.64 3 4 C2.34 4 1.68 4 1 4 C0.566875 5.0828125 0.566875 5.0828125 0.125 6.1875 C-0.91666667 8.79166667 -1.95833333 11.39583333 -3 14 C-3.66 13.67 -4.32 13.34 -5 13 C-4.690625 12.29875 -4.38125 11.5975 -4.0625 10.875 C-2.96697322 7.91063343 -2.43577008 5.12301892 -2 2 C-1.34 2 -0.68 2 0 2 C0 1.34 0 0.68 0 0 Z " fill="#FB3F13" transform="translate(169,40)"/>
<path d="M0 0 C2.56687367 3.8503105 1.83288724 5.58569763 1 10 C-0.32 9.67 -1.64 9.34 -3 9 C-3 9.66 -3 10.32 -3 11 C-3.66 10.67 -4.32 10.34 -5 10 C-3.35 6.7 -1.7 3.4 0 0 Z " fill="#B3300E" transform="translate(172,31)"/>
<path d="M0 0 C0.99 0.33 1.98 0.66 3 1 C2.21625 1.721875 1.4325 2.44375 0.625 3.1875 C-1.84412438 5.83299041 -2.93260278 7.60373611 -4 11 C-4.33 11 -4.66 11 -5 11 C-5 8.03 -5 5.06 -5 2 C-3.68 2 -2.36 2 -1 2 C-0.67 1.34 -0.34 0.68 0 0 Z " fill="#F04036" transform="translate(207,138)"/>
<path d="M0 0 C1.78821774 2.68232661 3.20142604 5.30288961 4.625 8.1875 C5.07101563 9.08855469 5.51703125 9.98960938 5.9765625 10.91796875 C6.31429687 11.60503906 6.65203125 12.29210938 7 13 C6.34 13 5.68 13 5 13 C5 12.34 5 11.68 5 11 C4.34 11 3.68 11 3 11 C2.67 9.35 2.34 7.7 2 6 C1.01 6 0.02 6 -1 6 C-0.67 4.02 -0.34 2.04 0 0 Z " fill="#DA4C51" transform="translate(222,40)"/>
<path d="M0 0 C-0.66 0 -1.32 0 -2 0 C-2 0.66 -2 1.32 -2 2 C-4.31 2.33 -6.62 2.66 -9 3 C-9 1.68 -9 0.36 -9 -1 C-3.375 -2.25 -3.375 -2.25 0 0 Z " fill="#EA4445" transform="translate(211,120)"/>
<path d="M0 0 C0.33 0 0.66 0 1 0 C1.34833144 4.87664009 0.41685712 7.77050005 -2 12 C-2.99 11.34 -3.98 10.68 -5 10 C-3.35 6.7 -1.7 3.4 0 0 Z " fill="#AC2C10" transform="translate(166,42)"/>
<path d="M0 0 C1.94268841 2.91403262 3.46395304 5.85808576 5 9 C4.34 9 3.68 9 3 9 C2.67 9.66 2.34 10.32 2 11 C-1.07692308 5.70769231 -1.07692308 5.70769231 -0.6875 2.125 C-0.460625 1.42375 -0.23375 0.7225 0 0 Z " fill="#D44A4E" transform="translate(229,53)"/>
<path d="M0 0 C3.05402088 1.52701044 3.65869481 3.95157912 5 7 C5 7.99 5 8.98 5 10 C5.66 10.33 6.32 10.66 7 11 C5.68 11.33 4.36 11.66 3 12 C1.82923301 8.01939223 0.74250597 4.08378283 0 0 Z " fill="#C13A38" transform="translate(210,19)"/>
<path d="M0 0 C1 3 1 3 0 6 C-0.66 6 -1.32 6 -2 6 C-2.33 7.98 -2.66 9.96 -3 12 C-3.66 12 -4.32 12 -5 12 C-5 11.34 -5 10.68 -5 10 C-5.66 9.67 -6.32 9.34 -7 9 C-6.525625 8.54625 -6.05125 8.0925 -5.5625 7.625 C-3.90972192 6.06741796 -3.90972192 6.06741796 -3 4 C-2.34 4 -1.68 4 -1 4 C-0.67 2.68 -0.34 1.36 0 0 Z " fill="#FB3F13" transform="translate(125,124)"/>
<path d="M0 0 C0.99 0 1.98 0 3 0 C3 0.66 3 1.32 3 2 C2.34 2 1.68 2 1 2 C0.87625 2.94875 0.7525 3.8975 0.625 4.875 C0 8 0 8 -2 10 C-2.66 10 -3.32 10 -4 10 C-3.43768609 6.06380262 -2.38314183 3.20807554 0 0 Z " fill="#BD3215" transform="translate(147,78)"/>
<path d="M0 0 C0.66 0 1.32 0 2 0 C6 6.625 6 6.625 6 10 C4.68 9.67 3.36 9.34 2 9 C1.34 6.03 0.68 3.06 0 0 Z " fill="#DB575A" transform="translate(237,70)"/>
<path d="M0 0 C0.99 0.33 1.98 0.66 3 1 C2.25 3.9375 2.25 3.9375 1 7 C-1.125 7.875 -1.125 7.875 -3 8 C-2.37240135 5.07120629 -1.41377341 2.63904371 0 0 Z " fill="#CC332D" transform="translate(64,232)"/>
<path d="M0 0 C3.66881155 0.70554068 6.70450534 2.27735506 10 4 C8.4375 5.25 8.4375 5.25 6 6 C3.42998985 4.93237266 1.3469597 3.53455057 -1 2 C-0.67 1.34 -0.34 0.68 0 0 Z " fill="#AE383F" transform="translate(149,182)"/>
<path d="M0 0 C0.66 0 1.32 0 2 0 C2.33 1.32 2.66 2.64 3 4 C2.01 4.33 1.02 4.66 0 5 C-0.66 4.67 -1.32 4.34 -2 4 C-2 3.34 -2 2.68 -2 2 C-1.34 2 -0.68 2 0 2 C0 1.34 0 0.68 0 0 Z M-2 5 C-1.34 5.33 -0.68 5.66 0 6 C0 7.32 0 8.64 0 10 C-0.99 10.33 -1.98 10.66 -3 11 C-2.67 9.02 -2.34 7.04 -2 5 Z " fill="#FC4017" transform="translate(150,75)"/>
<path d="M0 0 C0.66 0.99 1.32 1.98 2 3 C0.625 6.6875 0.625 6.6875 -1 10 C-2.1875 8.375 -2.1875 8.375 -3 6 C-1.625 2.75 -1.625 2.75 0 0 Z " fill="#CC2D1A" transform="translate(85,193)"/>
<path d="M0 0 C2.97 0.495 2.97 0.495 6 1 C6 1.66 6 2.32 6 3 C6.99 3 7.98 3 9 3 C9.33 3.99 9.66 4.98 10 6 C5 4 5 4 0 2 C0 1.34 0 0.68 0 0 Z " fill="#C83424" transform="translate(162,175)"/>
<path d="M0 0 C0.33 0.66 0.66 1.32 1 2 C-0.6875 3.5625 -0.6875 3.5625 -3 5 C-5.75 4.6875 -5.75 4.6875 -8 4 C-5.60490662 1.10067643 -3.68754757 0.49831724 0 0 Z " fill="#C53937" transform="translate(234,119)"/>
<path d="M0 0 C1.98 0.495 1.98 0.495 4 1 C4 1.99 4 2.98 4 4 C2.35 4.66 0.7 5.32 -1 6 C-0.67 4.02 -0.34 2.04 0 0 Z " fill="#D23615" transform="translate(109,148)"/>
<path d="M0 0 C-0.3125 1.9375 -0.3125 1.9375 -1 4 C-1.99 4.33 -2.98 4.66 -4 5 C-4 5.66 -4 6.32 -4 7 C-4.66 7 -5.32 7 -6 7 C-5.37162381 3.35541809 -4.14650034 0 0 0 Z " fill="#F44347" transform="translate(226,106)"/>
<path d="M0 0 C2 3 2 3 2 7 C0.68 6.67 -0.64 6.34 -2 6 C-2 6.66 -2 7.32 -2 8 C-2.66 7.67 -3.32 7.34 -4 7 C-2.68 4.69 -1.36 2.38 0 0 Z " fill="#B42D0E" transform="translate(152,69)"/>
<path d="M0 0 C2.0625 0.4375 2.0625 0.4375 4 1 C3.01 1 2.02 1 1 1 C1 1.99 1 2.98 1 4 C0.01 4.66 -0.98 5.32 -2 6 C-2.33 6.99 -2.66 7.98 -3 9 C-3.66 8.67 -4.32 8.34 -5 8 C-1.125 1.125 -1.125 1.125 0 0 Z " fill="#8F1A08" transform="translate(185,9)"/>
<path d="M0 0 C2.475 0.99 2.475 0.99 5 2 C5 2.66 5 3.32 5 4 C5.99 4.33 6.98 4.66 8 5 C7.01 5 6.02 5 5 5 C4.67 5.66 4.34 6.32 4 7 C4 6.34 4 5.68 4 5 C3.01 4.67 2.02 4.34 1 4 C0.3125 1.9375 0.3125 1.9375 0 0 Z " fill="#982B30" transform="translate(137,174)"/>
<path d="M0 0 C0.99 0.66 1.98 1.32 3 2 C2.34 3.65 1.68 5.3 1 7 C0.67 6.34 0.34 5.68 0 5 C-0.66 4.67 -1.32 4.34 -2 4 C-1.34 2.68 -0.68 1.36 0 0 Z " fill="#BC2E21" transform="translate(71,219)"/>
<path d="M0 0 C1.04449911 3.13349732 0.93423645 3.98968256 0 7 C-1.32 7.33 -2.64 7.66 -4 8 C-2.68 5.36 -1.36 2.72 0 0 Z " fill="#B43219" transform="translate(81,201)"/>
<path d="M0 0 C0.33 0 0.66 0 1 0 C1 1.98 1 3.96 1 6 C0.01 6 -0.98 6 -2 6 C-2 6.66 -2 7.32 -2 8 C-2.66 7.67 -3.32 7.34 -4 7 C-2.68 4.69 -1.36 2.38 0 0 Z " fill="#AA2210" transform="translate(139,93)"/>
<path d="M0 0 C0.66 1.32 1.32 2.64 2 4 C1.01 4.99 0.02 5.98 -1 7 C-1.625 5.1875 -1.625 5.1875 -2 3 C-1.34 2.01 -0.68 1.02 0 0 Z " fill="#C7341E" transform="translate(75,212)"/>
<path d="M0 0 C-0.8125 2.4375 -0.8125 2.4375 -2 5 C-2.99 5.33 -3.98 5.66 -5 6 C-5.33 5.01 -5.66 4.02 -6 3 C-2.25 0 -2.25 0 0 0 Z " fill="#A52B21" transform="translate(221,127)"/>
<path d="M0 0 C0.99 0 1.98 0 3 0 C2.67 1.98 2.34 3.96 2 6 C0.68 5.34 -0.64 4.68 -2 4 C-1.34 2.68 -0.68 1.36 0 0 Z " fill="#AF2C12" transform="translate(134,102)"/>
<path d="M0 0 C1.32 0.33 2.64 0.66 4 1 C3.01 1.495 3.01 1.495 2 2 C2.33 2.99 2.66 3.98 3 5 C2.34 5.66 1.68 6.32 1 7 C0 6 0 6 -0.0625 2.9375 C-0.041875 1.968125 -0.02125 0.99875 0 0 Z " fill="#BE3120" transform="translate(202,9)"/>
</svg>
